<mxfile host="app.diagrams.net" modified="2022-03-02T08:15:58.253Z" agent="5.0 (Windows NT 10.0; Win64; x64) AppleWebKit/537.36 (KHTML, like Gecko) Chrome/98.0.4758.102 Safari/537.36" etag="wDt-saV6lgj5fV-ncQZE" version="16.6.4" type="github">
  <diagram id="8oFkq8yx75sJStSvETH6" name="Page-1">
    <mxGraphModel dx="1422" dy="770" grid="1" gridSize="10" guides="1" tooltips="1" connect="1" arrows="1" fold="1" page="1" pageScale="1" pageWidth="827" pageHeight="1169" math="0" shadow="0">
      <root>
        <mxCell id="0" />
        <mxCell id="1" parent="0" />
        <mxCell id="pt1PU1P311s4pyEtAc8g-9" value="" style="edgeStyle=orthogonalEdgeStyle;rounded=0;orthogonalLoop=1;jettySize=auto;html=1;" edge="1" parent="1" source="pt1PU1P311s4pyEtAc8g-1" target="pt1PU1P311s4pyEtAc8g-8">
          <mxGeometry relative="1" as="geometry" />
        </mxCell>
        <mxCell id="pt1PU1P311s4pyEtAc8g-1" value="&lt;span style=&quot;color: rgb(71 , 77 , 102) ; font-family: &amp;#34;inter&amp;#34; ; font-size: 14px ; background-color: rgb(244 , 246 , 250)&quot;&gt;OrderCategoryLister&lt;/span&gt;" style="rounded=1;whiteSpace=wrap;html=1;" vertex="1" parent="1">
          <mxGeometry x="170" y="60" width="170" height="100" as="geometry" />
        </mxCell>
        <mxCell id="pt1PU1P311s4pyEtAc8g-8" value="&#xa;&#xa;&lt;span style=&quot;color: rgb(71, 77, 102); font-family: inter; font-size: 14px; font-style: normal; font-weight: 400; letter-spacing: normal; text-align: center; text-indent: 0px; text-transform: none; word-spacing: 0px; background-color: rgb(244, 246, 250); display: inline; float: none;&quot;&gt;LevelPriceRecord 查找&lt;/span&gt;&lt;br style=&quot;color: rgb(71, 77, 102); font-family: inter; font-size: 14px; font-style: normal; font-weight: 400; letter-spacing: normal; text-align: center; text-indent: 0px; text-transform: none; word-spacing: 0px; background-color: rgb(244, 246, 250);&quot;&gt;&lt;span style=&quot;color: rgb(71, 77, 102); font-family: inter; font-size: 14px; font-style: normal; font-weight: 400; letter-spacing: normal; text-align: center; text-indent: 0px; text-transform: none; word-spacing: 0px; background-color: rgb(244, 246, 250); display: inline; float: none;&quot;&gt;GameLevelingType 查找&lt;/span&gt;&lt;br style=&quot;color: rgb(71, 77, 102); font-family: inter; font-size: 14px; font-style: normal; font-weight: 400; letter-spacing: normal; text-align: center; text-indent: 0px; text-transform: none; word-spacing: 0px; background-color: rgb(244, 246, 250);&quot;&gt;&lt;span style=&quot;color: rgb(71, 77, 102); font-family: inter; font-size: 14px; font-style: normal; font-weight: 400; letter-spacing: normal; text-align: center; text-indent: 0px; text-transform: none; word-spacing: 0px; background-color: rgb(244, 246, 250); display: inline; float: none;&quot;&gt;$titleInfo 计算&lt;/span&gt;&#xa;&#xa;" style="rounded=1;whiteSpace=wrap;html=1;" vertex="1" parent="1">
          <mxGeometry x="170" y="240" width="170" height="100" as="geometry" />
        </mxCell>
      </root>
    </mxGraphModel>
  </diagram>
</mxfile>
